HIERARCHY
ROOT Hips
{
	OFFSET 0.000000 100.481300 0.000000
	CHANNELS 6 Xposition Yposition Zposition Xrotation Yrotation Zrotation
	JOINT Spine
	{
		OFFSET -0.279200 12.230698 -2.892100
		CHANNELS 3 Xrotation Yrotation Zrotation
		JOINT Spine1
		{
			OFFSET -0.325700 14.269203 -3.374200
			CHANNELS 3 Xrotation Yrotation Zrotation
			JOINT Spine2
			{
				OFFSET -0.372300 16.307602 -0.352600
				CHANNELS 3 Xrotation Yrotation Zrotation
				JOINT Neck
				{
					OFFSET -0.418800 17.814194 8.416900
					CHANNELS 3 Xrotation Yrotation Zrotation
					JOINT Head
					{
						OFFSET 0.000000 7.031097 3.806800
						CHANNELS 3 Xrotation Yrotation Zrotation
						JOINT HeadTop_End
						{
							OFFSET 0.000000 24.646606 12.978600
							CHANNELS 3 Xrotation Yrotation Zrotation
							End Site
							{
								OFFSET 0.000000 27.854965 0.000000
							}
						}
					}
				}
				JOINT LeftShoulder
				{
					OFFSET 16.952999 14.495407 -7.737500
					CHANNELS 3 Xrotation Yrotation Zrotation
					JOINT LeftArm
					{
						OFFSET 9.308998 -2.777710 0.208600
						CHANNELS 3 Xrotation Yrotation Zrotation
						JOINT LeftForeArm
						{
							OFFSET 29.972298 0.000000 0.000000
							CHANNELS 3 Xrotation Yrotation Zrotation
							JOINT LeftHand
							{
								OFFSET 26.026505 0.000000 0.000000
								CHANNELS 3 Xrotation Yrotation Zrotation
								JOINT LeftHandThumb1
								{
									OFFSET 12.240501 -7.147949 9.207150
									CHANNELS 3 Xrotation Yrotation Zrotation
									JOINT LeftHandThumb2
									{
										OFFSET 4.138618 -2.389435 2.389433
										CHANNELS 3 Xrotation Yrotation Zrotation
										JOINT LeftHandThumb3
										{
											OFFSET 2.726913 -1.574387 1.574386
											CHANNELS 3 Xrotation Yrotation Zrotation
											JOINT LeftHandThumb4
											{
												OFFSET 3.941010 -2.275345 2.275342
												CHANNELS 3 Xrotation Yrotation Zrotation
												End Site
												{
													OFFSET -0.005798 5.087799 0.009903
												}
											}
										}
									}
								}
								JOINT LeftHandIndex1
								{
									OFFSET 24.424698 -1.985611 5.953459
									CHANNELS 3 Xrotation Yrotation Zrotation
									JOINT LeftHandIndex2
									{
										OFFSET 6.426697 0.000000 0.000000
										CHANNELS 3 Xrotation Yrotation Zrotation
										JOINT LeftHandIndex3
										{
											OFFSET 5.337898 0.000000 0.000000
											CHANNELS 3 Xrotation Yrotation Zrotation
											JOINT LeftHandIndex4
											{
												OFFSET 4.409401 0.000000 0.000000
												CHANNELS 3 Xrotation Yrotation Zrotation
												End Site
												{
													OFFSET 0.000000 4.409363 0.014373
												}
											}
										}
									}
								}
								JOINT LeftHandMiddle1
								{
									OFFSET 23.810104 0.000000 0.000000
									CHANNELS 3 Xrotation Yrotation Zrotation
									JOINT LeftHandMiddle2
									{
										OFFSET 7.176498 0.000000 0.000000
										CHANNELS 3 Xrotation Yrotation Zrotation
										JOINT LeftHandMiddle3
										{
											OFFSET 6.774902 0.000000 0.000000
											CHANNELS 3 Xrotation Yrotation Zrotation
											JOINT LeftHandMiddle4
											{
												OFFSET 5.403328 0.000000 0.000000
												CHANNELS 3 Xrotation Yrotation Zrotation
												End Site
												{
													OFFSET -0.027702 5.403244 0.017414
												}
											}
										}
									}
								}
								JOINT LeftHandRing1
								{
									OFFSET 22.908401 -0.839279 -6.020567
									CHANNELS 3 Xrotation Yrotation Zrotation
									JOINT LeftHandRing2
									{
										OFFSET 6.337502 0.000000 0.000000
										CHANNELS 3 Xrotation Yrotation Zrotation
										JOINT LeftHandRing3
										{
											OFFSET 5.779297 0.000000 0.000000
											CHANNELS 3 Xrotation Yrotation Zrotation
											JOINT LeftHandRing4
											{
												OFFSET 4.965698 0.000000 0.000000
												CHANNELS 3 Xrotation Yrotation Zrotation
												End Site
												{
													OFFSET 0.000000 4.965668 0.016186
												}
											}
										}
									}
								}
								JOINT LeftHandPinky1
								{
									OFFSET 20.037003 -1.530319 -10.950146
									CHANNELS 3 Xrotation Yrotation Zrotation
									JOINT LeftHandPinky2
									{
										OFFSET 5.254700 0.000000 0.000000
										CHANNELS 3 Xrotation Yrotation Zrotation
										JOINT LeftHandPinky3
										{
											OFFSET 4.810204 0.000000 0.000000
											CHANNELS 3 Xrotation Yrotation Zrotation
											JOINT LeftHandPinky4
											{
												OFFSET 3.647202 0.000000 0.000000
												CHANNELS 3 Xrotation Yrotation Zrotation
												End Site
												{
													OFFSET 0.000000 3.647186 0.011889
												}
											}
										}
									}
								}
							}
						}
					}
				}
				JOINT RightShoulder
				{
					OFFSET -15.141001 14.495407 -7.737500
					CHANNELS 3 Xrotation Yrotation Zrotation
					JOINT RightArm
					{
						OFFSET -9.308998 -2.777710 0.208500
						CHANNELS 3 Xrotation Yrotation Zrotation
						JOINT RightForeArm
						{
							OFFSET -29.972300 0.000000 0.000000
							CHANNELS 3 Xrotation Yrotation Zrotation
							JOINT RightHand
							{
								OFFSET -26.026505 0.000000 0.000000
								CHANNELS 3 Xrotation Yrotation Zrotation
								JOINT RightHandThumb1
								{
									OFFSET -12.240601 -7.148026 9.207092
									CHANNELS 3 Xrotation Yrotation Zrotation
									JOINT RightHandThumb2
									{
										OFFSET -4.138618 -2.389435 2.389433
										CHANNELS 3 Xrotation Yrotation Zrotation
										JOINT RightHandThumb3
										{
											OFFSET -2.726974 -1.574417 1.574421
											CHANNELS 3 Xrotation Yrotation Zrotation
											JOINT RightHandThumb4
											{
												OFFSET -3.941010 -2.275345 2.275343
												CHANNELS 3 Xrotation Yrotation Zrotation
												End Site
												{
													OFFSET 0.005814 5.087799 0.009927
												}
											}
										}
									}
								}
								JOINT RightHandIndex1
								{
									OFFSET -24.424698 -1.985657 5.953444
									CHANNELS 3 Xrotation Yrotation Zrotation
									JOINT RightHandIndex2
									{
										OFFSET -6.426697 0.000000 0.000000
										CHANNELS 3 Xrotation Yrotation Zrotation
										JOINT RightHandIndex3
										{
											OFFSET -5.337898 0.000000 0.000000
											CHANNELS 3 Xrotation Yrotation Zrotation
											JOINT RightHandIndex4
											{
												OFFSET -4.409401 0.000000 0.000000
												CHANNELS 3 Xrotation Yrotation Zrotation
												End Site
												{
													OFFSET 0.000000 4.409363 0.014408
												}
											}
										}
									}
								}
								JOINT RightHandMiddle1
								{
									OFFSET -23.810097 0.000000 0.000000
									CHANNELS 3 Xrotation Yrotation Zrotation
									JOINT RightHandMiddle2
									{
										OFFSET -7.176498 0.000000 0.000000
										CHANNELS 3 Xrotation Yrotation Zrotation
										JOINT RightHandMiddle3
										{
											OFFSET -6.774902 0.000000 0.000000
											CHANNELS 3 Xrotation Yrotation Zrotation
											JOINT RightHandMiddle4
											{
												OFFSET -5.403328 0.000000 0.000000
												CHANNELS 3 Xrotation Yrotation Zrotation
												End Site
												{
													OFFSET 0.027702 5.403244 0.017457
												}
											}
										}
									}
								}
								JOINT RightHandRing1
								{
									OFFSET -22.908302 -0.839325 -6.020576
									CHANNELS 3 Xrotation Yrotation Zrotation
									JOINT RightHandRing2
									{
										OFFSET -6.337502 0.000000 0.000000
										CHANNELS 3 Xrotation Yrotation Zrotation
										JOINT RightHandRing3
										{
											OFFSET -5.779297 0.000000 0.000000
											CHANNELS 3 Xrotation Yrotation Zrotation
											JOINT RightHandRing4
											{
												OFFSET -4.965698 0.000000 0.000000
												CHANNELS 3 Xrotation Yrotation Zrotation
												End Site
												{
													OFFSET 0.000000 4.965668 0.016226
												}
											}
										}
									}
								}
								JOINT RightHandPinky1
								{
									OFFSET -20.037003 -1.530334 -10.950259
									CHANNELS 3 Xrotation Yrotation Zrotation
									JOINT RightHandPinky2
									{
										OFFSET -5.254700 0.000000 0.000000
										CHANNELS 3 Xrotation Yrotation Zrotation
										JOINT RightHandPinky3
										{
											OFFSET -4.810204 0.000000 0.000000
											CHANNELS 3 Xrotation Yrotation Zrotation
											JOINT RightHandPinky4
											{
												OFFSET -3.647202 0.000000 0.000000
												CHANNELS 3 Xrotation Yrotation Zrotation
												End Site
												{
													OFFSET 0.000000 3.647186 0.011917
												}
											}
										}
									}
								}
							}
						}
					}
				}
			}
		}
	}
	JOINT LeftUpLeg
	{
		OFFSET 15.427100 -6.655098 0.678600
		CHANNELS 3 Xrotation Yrotation Zrotation
		JOINT LeftLeg
		{
			OFFSET 4.081073 -39.591068 13.024000
			CHANNELS 3 Xrotation Yrotation Zrotation
			JOINT LeftFoot
			{
				OFFSET -4.081074 -37.707932 -15.979700
				CHANNELS 3 Xrotation Yrotation Zrotation
				JOINT LeftToeBase
				{
					OFFSET 5.346399 -15.068900 20.645000
					CHANNELS 3 Xrotation Yrotation Zrotation
					JOINT LeftToe_End
					{
						OFFSET 2.754700 0.931300 11.300900
						CHANNELS 3 Xrotation Yrotation Zrotation
						End Site
						{
							OFFSET 0.000000 11.669021 0.000000
						}
					}
				}
			}
		}
	}
	JOINT RightUpLeg
	{
		OFFSET -15.569500 -6.655098 0.678600
		CHANNELS 3 Xrotation Yrotation Zrotation
		JOINT RightLeg
		{
			OFFSET -4.081825 -39.591045 13.023800
			CHANNELS 3 Xrotation Yrotation Zrotation
			JOINT RightFoot
			{
				OFFSET 4.081824 -37.707954 -15.979600
				CHANNELS 3 Xrotation Yrotation Zrotation
				JOINT RightToeBase
				{
					OFFSET -5.346400 -15.068900 20.645000
					CHANNELS 3 Xrotation Yrotation Zrotation
					JOINT RightToe_End
					{
						OFFSET -2.754700 0.931300 11.300900
						CHANNELS 3 Xrotation Yrotation Zrotation
						End Site
						{
							OFFSET 0.000000 11.669021 0.000000
						}
					}
				}
			}
		}
	}
}
MOTION
Frames: 4
Frame Time: 0.033333
14.377824 73.170341 259.481018 2.343340 11.369846 1.483870 15.325898 5.203497 -1.448871 2.321840 1.440296 -1.116277 2.323950 1.446210 -1.146319 3.158529 -2.578042 0.401324 -18.243044 -22.828234 -6.371243 -0.000000 0.000000 0.000000 0.538265 -3.757238 -16.061905 -1.756598 20.344866 -46.772210 55.238229 -32.135818 41.239528 -19.763270 11.161963 50.358978 35.584500 35.947296 -9.099862 25.524354 2.228905 -0.525075 -1.145746 -28.994170 47.602098 0.000000 0.000001 0.000001 2.439019 7.530507 -36.736166 0.968464 3.228033 -33.391999 0.968534 3.228085 -33.393010 -0.000000 0.000000 0.000001 8.606318 13.545924 -59.302407 1.376196 3.773498 -40.061877 1.510434 3.927207 -42.060503 0.000000 -0.000001 -0.000001 8.052504 15.786956 -48.468344 0.649781 2.683502 -27.217826 0.746279 2.863116 -29.212012 0.000000 0.000000 0.000001 6.604180 5.913971 -65.444687 0.014485 0.411890 -4.022558 0.014784 0.416045 -4.063434 -0.000000 -0.000003 0.000000 -0.066370 10.954312 21.254767 1.354417 -32.049085 42.539197 248.440700 159.806127 -227.002129 12.824259 -8.123031 -18.186193 6.486036 -51.193094 2.223769 11.176058 0.533797 2.689890 -14.816816 5.500258 -21.166563 -0.000002 -0.000001 0.000002 2.132808 -6.708326 36.098701 0.772335 -2.570514 33.442481 0.772385 -2.570580 33.443475 0.000003 0.000001 -0.000002 7.773149 -12.349763 42.830416 1.097257 -3.004654 40.115989 1.204169 -3.127003 42.115110 -0.000002 0.000000 -0.000000 6.810951 -14.119591 35.591265 0.353568 -1.781656 22.447811 0.418198 -1.930621 24.443326 0.000002 0.000002 0.000001 6.437436 -8.037629 41.849617 0.011531 -0.328040 4.030263 0.011697 -0.331345 4.071209 -0.000000 -0.000000 -0.000001 -21.185010 -12.520339 30.294816 35.555311 -7.076639 5.175088 -12.616733 8.584345 -37.950713 -0.243313 -1.242316 -0.476741 -0.000000 -0.000000 0.000000 -16.858804 8.314855 -30.308497 44.575877 9.605930 -5.640811 -27.518620 -10.450539 29.885855 -0.003753 -1.078800 0.001003 0.000000 0.000001 -0.000000 
14.585242 72.453674 259.720551 2.204633 11.477873 2.203679 15.719880 6.894493 -1.999220 2.582746 1.911454 -1.121008 2.590451 1.904825 -1.161426 2.939976 -2.834999 -0.175659 -19.530439 -25.810023 -7.680593 0.000000 0.000000 -0.000001 0.551632 -3.762566 -12.998234 -4.349626 18.367128 -43.561420 68.357237 -24.150138 49.404527 -16.622199 10.701197 33.104592 39.502276 24.200130 9.917229 17.529884 8.880296 3.784817 -1.848139 -29.148502 41.102186 -0.000001 0.000000 -0.000003 0.315668 4.072177 -20.278278 0.754065 2.877005 -29.367478 0.754030 2.876906 -29.366695 0.000001 -0.000001 -0.000001 2.313451 11.329913 -33.681787 1.107512 3.429355 -35.786599 1.229851 3.592607 -37.783661 0.000000 -0.000001 0.000002 2.485845 16.955123 -23.523537 0.516649 2.407379 -24.220824 0.603606 2.591807 -26.214199 0.000000 0.000002 -0.000000 5.184776 6.080149 -40.812935 0.000110 -0.032529 -0.000059 0.001364 -0.125527 1.224923 -0.000000 -0.000003 -0.000002 0.154309 10.761228 18.059100 4.440728 -43.249267 41.440086 271.596844 185.944715 -235.411458 -0.230099 1.371271 -5.946420 14.303953 -38.714803 -8.071317 3.559187 -4.841011 -3.546624 -12.797963 4.664287 -15.544404 0.000001 0.000000 0.000002 0.210299 -3.525138 19.603988 0.601423 -2.291079 29.414415 0.601402 -2.291014 29.413636 -0.000000 0.000001 0.000000 1.967315 -10.390649 17.335881 0.883167 -2.730761 35.838709 0.980627 -2.860697 37.836875 0.000003 -0.000002 -0.000002 1.925531 -15.428024 10.863729 0.267180 -1.556277 19.482088 0.324006 -1.708371 21.477105 -0.000000 0.000001 -0.000000 3.983319 -8.400404 16.889135 0.000102 0.025937 0.000106 0.000977 0.099985 -1.227271 -0.000001 0.000000 -0.000003 -21.147702 -13.134226 29.570922 36.843574 -6.618731 5.112224 -13.497128 8.933410 -38.111988 -0.245330 -1.122032 -0.477336 -0.000000 0.000001 -0.000000 -16.112263 9.495992 -31.363447 45.663257 9.361530 -5.545575 -28.682068 -10.964171 30.300034 -0.004382 -1.875227 0.001015 0.000000 0.000000 -0.000000 
14.957079 71.596756 259.995911 0.874432 10.567263 2.737509 16.578759 7.750107 -2.132716 2.874320 2.129441 -0.961978 2.892624 2.099152 -1.007871 2.924014 -2.808314 -0.859473 -20.060564 -26.440741 -8.640831 0.000000 0.000000 0.000000 0.574413 -3.847757 -8.120079 -0.048014 17.456278 -45.011165 79.497740 -16.898376 60.075380 -12.409690 5.386123 15.089655 54.677508 18.504936 17.491206 7.517577 15.862735 9.785568 -2.304484 -29.218559 37.432725 0.000001 -0.000000 -0.000000 -0.823485 0.499084 -18.915690 0.648137 2.680302 -27.182650 0.647991 2.679949 -27.179126 0.000003 -0.000002 -0.000002 0.623426 8.766954 -28.906289 1.031046 3.320905 -34.487971 1.149657 3.486879 -36.484606 0.000003 0.000005 -0.000002 1.620803 16.422003 -20.198777 0.486051 2.338234 -23.481758 0.570605 2.523757 -25.474944 0.000001 -0.000000 -0.000001 5.027827 7.801848 -24.826271 0.000211 0.047215 -0.460652 0.000783 -0.093826 0.915621 -0.000002 -0.000001 -0.000001 0.329324 10.516983 15.394551 9.170811 -50.091918 44.362113 279.505657 197.965124 -237.040732 -10.940502 6.736213 15.538785 26.114211 -26.622623 -13.451289 -6.081448 -10.058113 -11.437877 -11.659992 4.372837 -12.358330 -0.000001 0.000002 -0.000001 -0.875129 0.035003 18.175963 0.516969 -2.134481 27.227304 0.516851 -2.134203 27.223759 0.000001 -0.000003 -0.000003 0.370412 -7.894024 12.588074 0.822240 -2.644432 34.539239 0.916701 -2.776557 36.537090 0.000001 0.000000 0.000000 1.149938 -14.934055 7.571569 0.248338 -1.501952 18.775881 0.303257 -1.654754 20.770776 0.000004 0.000000 -0.000000 3.122201 -10.006237 0.601339 0.000148 -0.037598 0.461531 0.000516 0.074752 -0.917361 0.000002 -0.000003 0.000001 -19.199269 -13.475258 29.654779 38.636843 -5.854162 4.933103 -15.096108 9.635084 -38.387162 -0.246295 -1.179498 -0.477931 0.000000 -0.000000 0.000000 -15.197545 10.219984 -32.079110 46.906956 9.985528 -5.290806 -29.489758 -11.185768 30.230311 -0.005170 -2.216935 0.001041 0.000000 0.000000 0.000000 
15.487257 70.705963 260.169891 -0.394099 7.406768 2.839591 17.208626 7.047603 -1.648716 3.009113 1.919750 -0.847415 3.034124 1.870466 -0.889785 3.117084 -2.282824 -1.854484 -19.754905 -22.480786 -9.106364 -0.000000 -0.000000 0.000000 0.573693 -3.940773 -2.991900 11.546635 16.333402 -49.127314 84.131688 -17.601109 72.445706 -10.190174 0.181445 0.587470 66.884115 30.890166 9.806160 5.264973 17.172385 11.229187 -1.684050 -28.791529 42.904694 -0.000000 -0.000002 -0.000002 -1.092323 -0.658005 -17.864005 0.645029 2.674206 -27.115784 0.645296 2.674729 -27.121617 -0.000000 0.000002 -0.000003 0.331179 7.692138 -32.351563 1.230695 3.593736 -37.797478 1.358707 3.752613 -39.795250 -0.000002 0.000001 0.000002 2.530226 15.067887 -25.202988 0.586818 2.557524 -25.840904 0.678994 2.739426 -27.834759 -0.000003 -0.000003 0.000003 4.119963 7.712289 -15.072619 0.073176 0.923957 -9.054566 0.066431 0.880452 -8.625099 -0.000000 -0.000001 -0.000001 0.620896 9.736711 11.439774 15.402116 -48.046546 50.850215 274.773319 191.905598 -239.309994 -18.883752 4.357607 48.689973 44.327948 -40.303539 -14.869561 -8.270917 -10.971818 -13.363035 -13.233324 4.958833 -17.169733 -0.000002 -0.000003 -0.000001 -1.122070 1.174356 17.102100 0.514496 -2.129632 27.160329 0.514688 -2.130017 27.166203 -0.000003 -0.000001 0.000001 0.045711 -6.757754 16.052422 0.981328 -2.861596 37.850648 1.083287 -2.988048 39.849260 0.000000 -0.000002 0.000000 1.947887 -13.520007 12.537870 0.314937 -1.685148 21.170520 0.376211 -1.835503 23.165811 -0.000002 0.000000 -0.000001 1.828977 -9.730833 -9.398632 0.058393 -0.735879 9.071648 0.052898 -0.701233 8.641408 0.000002 0.000000 -0.000001 -16.431046 -11.680234 30.289809 40.601633 -5.877288 5.401211 -17.992323 10.741383 -38.393808 -1.958637 0.395267 -1.041824 0.000000 -0.000000 -0.000000 -16.791276 12.019016 -32.857165 49.739114 9.802676 -3.144365 -28.743181 -10.582060 27.947152 -0.006801 -0.812816 0.505559 0.000000 0.000000 -0.000000 
